# xmcd CD database file
#
# Track frame offsets:
#	150
#	19315
#	27667
#	44785
#	65362
#	83587
#	105500
#	128300
#	135802
#	157215
#	178902
#	202110
#	221802
#	241150
#	262792
#	272645
#	287552
#	307982
#	333660
#
# Disc length: 4547 seconds
#
# Revision: 25
# Processed by: cddbd v1.5.2PL0 Copyright (c) Steve Scherf et al.
# Submitted via: CDex 1.51
#
DISCID=1311c113
DTITLE=Nelly - Nellyville
DYEAR=2002
DGENRE=Rap
TTITLE0=Nellyville
TTITLE1=Gettin It Started
TTITLE2=Hot In Herre
TTITLE3=Dem Boyz
TTITLE4=Oh Nelly
TTITLE5=Pimp Juice
TTITLE6=Air Force Ones
TTITLE7=In The Store
TTITLE8=On The Grind
TTITLE9=Dilemma
TTITLE10=Splurge
TTITLE11=Work It
TTITLE12=Roc The Mic (Rmx) 
TTITLE13=The Gank
TTITLE14=5000
TTITLE15=#1
TTITLE16=CG 2
TTITLE17=Say Now
TTITLE18=Fuck It Then
EXTD=YEAR: 2002
EXTT0=
EXTT1=
EXTT2=
EXTT3=
EXTT4=
EXTT5=
EXTT6=
EXTT7=
EXTT8=
EXTT9=
EXTT10=
EXTT11=
EXTT12=
EXTT13=
EXTT14=
EXTT15=
EXTT16=
EXTT17=
EXTT18=
PLAYORDER=
